<svg xmlns="http://www.w3.org/2000/svg" viewBox="0 0 1200 374" font-family="monospace">
<defs>
    <linearGradient id="bg" x1="0" y1="0" x2="0" y2="1">
      <stop offset="0" stop-color="#070b16"/><stop offset="1" stop-color="#0b1524"/>
    </linearGradient>
    <linearGradient id="wm" x1="0" y1="0" x2="1" y2="1">
      <stop offset="0" stop-color="#34e6f2"/><stop offset="0.55" stop-color="#3b82f6"/><stop offset="1" stop-color="#a855f7"/>
    </linearGradient>
    <radialGradient id="orbC" cx="0.5" cy="0.5" r="0.5">
      <stop offset="0" stop-color="#34e6f2" stop-opacity="0.55"/><stop offset="1" stop-color="#34e6f2" stop-opacity="0"/>
    </radialGradient>
    <radialGradient id="orbV" cx="0.5" cy="0.5" r="0.5">
      <stop offset="0" stop-color="#a855f7" stop-opacity="0.5"/><stop offset="1" stop-color="#a855f7" stop-opacity="0"/>
    </radialGradient>
    <filter id="glow" x="-40%" y="-40%" width="180%" height="180%">
      <feGaussianBlur stdDeviation="6" result="b"/>
      <feMerge><feMergeNode in="b"/><feMergeNode in="SourceGraphic"/></feMerge>
    </filter>
    <filter id="soft" x="-60%" y="-60%" width="220%" height="220%"><feGaussianBlur stdDeviation="18"/></filter>
  </defs>
<rect width="1200" height="374" fill="url(#bg)"/>
<circle cx="180" cy="70" r="220" fill="url(#orbC)" filter="url(#soft)"/>
<circle cx="1040" cy="300" r="240" fill="url(#orbV)" filter="url(#soft)"/>
<g opacity="0.6"><rect x="12" y="12" width="2" height="2" fill="#16263f"/><rect x="38" y="12" width="2" height="2" fill="#16263f"/><rect x="64" y="12" width="2" height="2" fill="#16263f"/><rect x="90" y="12" width="2" height="2" fill="#16263f"/><rect x="116" y="12" width="2" height="2" fill="#16263f"/><rect x="142" y="12" width="2" height="2" fill="#16263f"/><rect x="168" y="12" width="2" height="2" fill="#16263f"/><rect x="194" y="12" width="2" height="2" fill="#16263f"/><rect x="220" y="12" width="2" height="2" fill="#16263f"/><rect x="246" y="12" width="2" height="2" fill="#16263f"/><rect x="272" y="12" width="2" height="2" fill="#16263f"/><rect x="298" y="12" width="2" height="2" fill="#16263f"/><rect x="324" y="12" width="2" height="2" fill="#16263f"/><rect x="350" y="12" width="2" height="2" fill="#16263f"/><rect x="376" y="12" width="2" height="2" fill="#16263f"/><rect x="402" y="12" width="2" height="2" fill="#16263f"/><rect x="428" y="12" width="2" height="2" fill="#16263f"/><rect x="454" y="12" width="2" height="2" fill="#16263f"/><rect x="480" y="12" width="2" height="2" fill="#16263f"/><rect x="506" y="12" width="2" height="2" fill="#16263f"/><rect x="532" y="12" width="2" height="2" fill="#16263f"/><rect x="558" y="12" width="2" height="2" fill="#16263f"/><rect x="584" y="12" width="2" height="2" fill="#16263f"/><rect x="610" y="12" width="2" height="2" fill="#16263f"/><rect x="636" y="12" width="2" height="2" fill="#16263f"/><rect x="662" y="12" width="2" height="2" fill="#16263f"/><rect x="688" y="12" width="2" height="2" fill="#16263f"/><rect x="714" y="12" width="2" height="2" fill="#16263f"/><rect x="740" y="12" width="2" height="2" fill="#16263f"/><rect x="766" y="12" width="2" height="2" fill="#16263f"/><rect x="792" y="12" width="2" height="2" fill="#16263f"/><rect x="818" y="12" width="2" height="2" fill="#16263f"/><rect x="844" y="12" width="2" height="2" fill="#16263f"/><rect x="870" y="12" width="2" height="2" fill="#16263f"/><rect x="896" y="12" width="2" height="2" fill="#16263f"/><rect x="922" y="12" width="2" height="2" fill="#16263f"/><rect x="948" y="12" width="2" height="2" fill="#16263f"/><rect x="974" y="12" width="2" height="2" fill="#16263f"/><rect x="1000" y="12" width="2" height="2" fill="#16263f"/><rect x="1026" y="12" width="2" height="2" fill="#16263f"/><rect x="1052" y="12" width="2" height="2" fill="#16263f"/><rect x="1078" y="12" width="2" height="2" fill="#16263f"/><rect x="1104" y="12" width="2" height="2" fill="#16263f"/><rect x="1130" y="12" width="2" height="2" fill="#16263f"/><rect x="1156" y="12" width="2" height="2" fill="#16263f"/><rect x="1182" y="12" width="2" height="2" fill="#16263f"/><rect x="12" y="38" width="2" height="2" fill="#16263f"/><rect x="38" y="38" width="2" height="2" fill="#16263f"/><rect x="64" y="38" width="2" height="2" fill="#16263f"/><rect x="90" y="38" width="2" height="2" fill="#16263f"/><rect x="116" y="38" width="2" height="2" fill="#16263f"/><rect x="142" y="38" width="2" height="2" fill="#16263f"/><rect x="168" y="38" width="2" height="2" fill="#16263f"/><rect x="194" y="38" width="2" height="2" fill="#16263f"/><rect x="220" y="38" width="2" height="2" fill="#16263f"/><rect x="246" y="38" width="2" height="2" fill="#16263f"/><rect x="272" y="38" width="2" height="2" fill="#16263f"/><rect x="298" y="38" width="2" height="2" fill="#16263f"/><rect x="324" y="38" width="2" height="2" fill="#16263f"/><rect x="350" y="38" width="2" height="2" fill="#16263f"/><rect x="376" y="38" width="2" height="2" fill="#16263f"/><rect x="402" y="38" width="2" height="2" fill="#16263f"/><rect x="428" y="38" width="2" height="2" fill="#16263f"/><rect x="454" y="38" width="2" height="2" fill="#16263f"/><rect x="480" y="38" width="2" height="2" fill="#16263f"/><rect x="506" y="38" width="2" height="2" fill="#16263f"/><rect x="532" y="38" width="2" height="2" fill="#16263f"/><rect x="558" y="38" width="2" height="2" fill="#16263f"/><rect x="584" y="38" width="2" height="2" fill="#16263f"/><rect x="610" y="38" width="2" height="2" fill="#16263f"/><rect x="636" y="38" width="2" height="2" fill="#16263f"/><rect x="662" y="38" width="2" height="2" fill="#16263f"/><rect x="688" y="38" width="2" height="2" fill="#16263f"/><rect x="714" y="38" width="2" height="2" fill="#16263f"/><rect x="740" y="38" width="2" height="2" fill="#16263f"/><rect x="766" y="38" width="2" height="2" fill="#16263f"/><rect x="792" y="38" width="2" height="2" fill="#16263f"/><rect x="818" y="38" width="2" height="2" fill="#16263f"/><rect x="844" y="38" width="2" height="2" fill="#16263f"/><rect x="870" y="38" width="2" height="2" fill="#16263f"/><rect x="896" y="38" width="2" height="2" fill="#16263f"/><rect x="922" y="38" width="2" height="2" fill="#16263f"/><rect x="948" y="38" width="2" height="2" fill="#16263f"/><rect x="974" y="38" width="2" height="2" fill="#16263f"/><rect x="1000" y="38" width="2" height="2" fill="#16263f"/><rect x="1026" y="38" width="2" height="2" fill="#16263f"/><rect x="1052" y="38" width="2" height="2" fill="#16263f"/><rect x="1078" y="38" width="2" height="2" fill="#16263f"/><rect x="1104" y="38" width="2" height="2" fill="#16263f"/><rect x="1130" y="38" width="2" height="2" fill="#16263f"/><rect x="1156" y="38" width="2" height="2" fill="#16263f"/><rect x="1182" y="38" width="2" height="2" fill="#16263f"/><rect x="12" y="64" width="2" height="2" fill="#16263f"/><rect x="38" y="64" width="2" height="2" fill="#16263f"/><rect x="64" y="64" width="2" height="2" fill="#16263f"/><rect x="90" y="64" width="2" height="2" fill="#16263f"/><rect x="116" y="64" width="2" height="2" fill="#16263f"/><rect x="142" y="64" width="2" height="2" fill="#16263f"/><rect x="168" y="64" width="2" height="2" fill="#16263f"/><rect x="194" y="64" width="2" height="2" fill="#16263f"/><rect x="220" y="64" width="2" height="2" fill="#16263f"/><rect x="246" y="64" width="2" height="2" fill="#16263f"/><rect x="272" y="64" width="2" height="2" fill="#16263f"/><rect x="298" y="64" width="2" height="2" fill="#16263f"/><rect x="324" y="64" width="2" height="2" fill="#16263f"/><rect x="350" y="64" width="2" height="2" fill="#16263f"/><rect x="376" y="64" width="2" height="2" fill="#16263f"/><rect x="402" y="64" width="2" height="2" fill="#16263f"/><rect x="428" y="64" width="2" height="2" fill="#16263f"/><rect x="454" y="64" width="2" height="2" fill="#16263f"/><rect x="480" y="64" width="2" height="2" fill="#16263f"/><rect x="506" y="64" width="2" height="2" fill="#16263f"/><rect x="532" y="64" width="2" height="2" fill="#16263f"/><rect x="558" y="64" width="2" height="2" fill="#16263f"/><rect x="584" y="64" width="2" height="2" fill="#16263f"/><rect x="610" y="64" width="2" height="2" fill="#16263f"/><rect x="636" y="64" width="2" height="2" fill="#16263f"/><rect x="662" y="64" width="2" height="2" fill="#16263f"/><rect x="688" y="64" width="2" height="2" fill="#16263f"/><rect x="714" y="64" width="2" height="2" fill="#16263f"/><rect x="740" y="64" width="2" height="2" fill="#16263f"/><rect x="766" y="64" width="2" height="2" fill="#16263f"/><rect x="792" y="64" width="2" height="2" fill="#16263f"/><rect x="818" y="64" width="2" height="2" fill="#16263f"/><rect x="844" y="64" width="2" height="2" fill="#16263f"/><rect x="870" y="64" width="2" height="2" fill="#16263f"/><rect x="896" y="64" width="2" height="2" fill="#16263f"/><rect x="922" y="64" width="2" height="2" fill="#16263f"/><rect x="948" y="64" width="2" height="2" fill="#16263f"/><rect x="974" y="64" width="2" height="2" fill="#16263f"/><rect x="1000" y="64" width="2" height="2" fill="#16263f"/><rect x="1026" y="64" width="2" height="2" fill="#16263f"/><rect x="1052" y="64" width="2" height="2" fill="#16263f"/><rect x="1078" y="64" width="2" height="2" fill="#16263f"/><rect x="1104" y="64" width="2" height="2" fill="#16263f"/><rect x="1130" y="64" width="2" height="2" fill="#16263f"/><rect x="1156" y="64" width="2" height="2" fill="#16263f"/><rect x="1182" y="64" width="2" height="2" fill="#16263f"/><rect x="12" y="90" width="2" height="2" fill="#16263f"/><rect x="38" y="90" width="2" height="2" fill="#16263f"/><rect x="64" y="90" width="2" height="2" fill="#16263f"/><rect x="90" y="90" width="2" height="2" fill="#16263f"/><rect x="116" y="90" width="2" height="2" fill="#16263f"/><rect x="142" y="90" width="2" height="2" fill="#16263f"/><rect x="168" y="90" width="2" height="2" fill="#16263f"/><rect x="194" y="90" width="2" height="2" fill="#16263f"/><rect x="220" y="90" width="2" height="2" fill="#16263f"/><rect x="246" y="90" width="2" height="2" fill="#16263f"/><rect x="272" y="90" width="2" height="2" fill="#16263f"/><rect x="298" y="90" width="2" height="2" fill="#16263f"/><rect x="324" y="90" width="2" height="2" fill="#16263f"/><rect x="350" y="90" width="2" height="2" fill="#16263f"/><rect x="376" y="90" width="2" height="2" fill="#16263f"/><rect x="402" y="90" width="2" height="2" fill="#16263f"/><rect x="428" y="90" width="2" height="2" fill="#16263f"/><rect x="454" y="90" width="2" height="2" fill="#16263f"/><rect x="480" y="90" width="2" height="2" fill="#16263f"/><rect x="506" y="90" width="2" height="2" fill="#16263f"/><rect x="532" y="90" width="2" height="2" fill="#16263f"/><rect x="558" y="90" width="2" height="2" fill="#16263f"/><rect x="584" y="90" width="2" height="2" fill="#16263f"/><rect x="610" y="90" width="2" height="2" fill="#16263f"/><rect x="636" y="90" width="2" height="2" fill="#16263f"/><rect x="662" y="90" width="2" height="2" fill="#16263f"/><rect x="688" y="90" width="2" height="2" fill="#16263f"/><rect x="714" y="90" width="2" height="2" fill="#16263f"/><rect x="740" y="90" width="2" height="2" fill="#16263f"/><rect x="766" y="90" width="2" height="2" fill="#16263f"/><rect x="792" y="90" width="2" height="2" fill="#16263f"/><rect x="818" y="90" width="2" height="2" fill="#16263f"/><rect x="844" y="90" width="2" height="2" fill="#16263f"/><rect x="870" y="90" width="2" height="2" fill="#16263f"/><rect x="896" y="90" width="2" height="2" fill="#16263f"/><rect x="922" y="90" width="2" height="2" fill="#16263f"/><rect x="948" y="90" width="2" height="2" fill="#16263f"/><rect x="974" y="90" width="2" height="2" fill="#16263f"/><rect x="1000" y="90" width="2" height="2" fill="#16263f"/><rect x="1026" y="90" width="2" height="2" fill="#16263f"/><rect x="1052" y="90" width="2" height="2" fill="#16263f"/><rect x="1078" y="90" width="2" height="2" fill="#16263f"/><rect x="1104" y="90" width="2" height="2" fill="#16263f"/><rect x="1130" y="90" width="2" height="2" fill="#16263f"/><rect x="1156" y="90" width="2" height="2" fill="#16263f"/><rect x="1182" y="90" width="2" height="2" fill="#16263f"/><rect x="12" y="116" width="2" height="2" fill="#16263f"/><rect x="38" y="116" width="2" height="2" fill="#16263f"/><rect x="64" y="116" width="2" height="2" fill="#16263f"/><rect x="90" y="116" width="2" height="2" fill="#16263f"/><rect x="116" y="116" width="2" height="2" fill="#16263f"/><rect x="142" y="116" width="2" height="2" fill="#16263f"/><rect x="168" y="116" width="2" height="2" fill="#16263f"/><rect x="194" y="116" width="2" height="2" fill="#16263f"/><rect x="220" y="116" width="2" height="2" fill="#16263f"/><rect x="246" y="116" width="2" height="2" fill="#16263f"/><rect x="272" y="116" width="2" height="2" fill="#16263f"/><rect x="298" y="116" width="2" height="2" fill="#16263f"/><rect x="324" y="116" width="2" height="2" fill="#16263f"/><rect x="350" y="116" width="2" height="2" fill="#16263f"/><rect x="376" y="116" width="2" height="2" fill="#16263f"/><rect x="402" y="116" width="2" height="2" fill="#16263f"/><rect x="428" y="116" width="2" height="2" fill="#16263f"/><rect x="454" y="116" width="2" height="2" fill="#16263f"/><rect x="480" y="116" width="2" height="2" fill="#16263f"/><rect x="506" y="116" width="2" height="2" fill="#16263f"/><rect x="532" y="116" width="2" height="2" fill="#16263f"/><rect x="558" y="116" width="2" height="2" fill="#16263f"/><rect x="584" y="116" width="2" height="2" fill="#16263f"/><rect x="610" y="116" width="2" height="2" fill="#16263f"/><rect x="636" y="116" width="2" height="2" fill="#16263f"/><rect x="662" y="116" width="2" height="2" fill="#16263f"/><rect x="688" y="116" width="2" height="2" fill="#16263f"/><rect x="714" y="116" width="2" height="2" fill="#16263f"/><rect x="740" y="116" width="2" height="2" fill="#16263f"/><rect x="766" y="116" width="2" height="2" fill="#16263f"/><rect x="792" y="116" width="2" height="2" fill="#16263f"/><rect x="818" y="116" width="2" height="2" fill="#16263f"/><rect x="844" y="116" width="2" height="2" fill="#16263f"/><rect x="870" y="116" width="2" height="2" fill="#16263f"/><rect x="896" y="116" width="2" height="2" fill="#16263f"/><rect x="922" y="116" width="2" height="2" fill="#16263f"/><rect x="948" y="116" width="2" height="2" fill="#16263f"/><rect x="974" y="116" width="2" height="2" fill="#16263f"/><rect x="1000" y="116" width="2" height="2" fill="#16263f"/><rect x="1026" y="116" width="2" height="2" fill="#16263f"/><rect x="1052" y="116" width="2" height="2" fill="#16263f"/><rect x="1078" y="116" width="2" height="2" fill="#16263f"/><rect x="1104" y="116" width="2" height="2" fill="#16263f"/><rect x="1130" y="116" width="2" height="2" fill="#16263f"/><rect x="1156" y="116" width="2" height="2" fill="#16263f"/><rect x="1182" y="116" width="2" height="2" fill="#16263f"/><rect x="12" y="142" width="2" height="2" fill="#16263f"/><rect x="38" y="142" width="2" height="2" fill="#16263f"/><rect x="64" y="142" width="2" height="2" fill="#16263f"/><rect x="90" y="142" width="2" height="2" fill="#16263f"/><rect x="116" y="142" width="2" height="2" fill="#16263f"/><rect x="142" y="142" width="2" height="2" fill="#16263f"/><rect x="168" y="142" width="2" height="2" fill="#16263f"/><rect x="194" y="142" width="2" height="2" fill="#16263f"/><rect x="220" y="142" width="2" height="2" fill="#16263f"/><rect x="246" y="142" width="2" height="2" fill="#16263f"/><rect x="272" y="142" width="2" height="2" fill="#16263f"/><rect x="298" y="142" width="2" height="2" fill="#16263f"/><rect x="324" y="142" width="2" height="2" fill="#16263f"/><rect x="350" y="142" width="2" height="2" fill="#16263f"/><rect x="376" y="142" width="2" height="2" fill="#16263f"/><rect x="402" y="142" width="2" height="2" fill="#16263f"/><rect x="428" y="142" width="2" height="2" fill="#16263f"/><rect x="454" y="142" width="2" height="2" fill="#16263f"/><rect x="480" y="142" width="2" height="2" fill="#16263f"/><rect x="506" y="142" width="2" height="2" fill="#16263f"/><rect x="532" y="142" width="2" height="2" fill="#16263f"/><rect x="558" y="142" width="2" height="2" fill="#16263f"/><rect x="584" y="142" width="2" height="2" fill="#16263f"/><rect x="610" y="142" width="2" height="2" fill="#16263f"/><rect x="636" y="142" width="2" height="2" fill="#16263f"/><rect x="662" y="142" width="2" height="2" fill="#16263f"/><rect x="688" y="142" width="2" height="2" fill="#16263f"/><rect x="714" y="142" width="2" height="2" fill="#16263f"/><rect x="740" y="142" width="2" height="2" fill="#16263f"/><rect x="766" y="142" width="2" height="2" fill="#16263f"/><rect x="792" y="142" width="2" height="2" fill="#16263f"/><rect x="818" y="142" width="2" height="2" fill="#16263f"/><rect x="844" y="142" width="2" height="2" fill="#16263f"/><rect x="870" y="142" width="2" height="2" fill="#16263f"/><rect x="896" y="142" width="2" height="2" fill="#16263f"/><rect x="922" y="142" width="2" height="2" fill="#16263f"/><rect x="948" y="142" width="2" height="2" fill="#16263f"/><rect x="974" y="142" width="2" height="2" fill="#16263f"/><rect x="1000" y="142" width="2" height="2" fill="#16263f"/><rect x="1026" y="142" width="2" height="2" fill="#16263f"/><rect x="1052" y="142" width="2" height="2" fill="#16263f"/><rect x="1078" y="142" width="2" height="2" fill="#16263f"/><rect x="1104" y="142" width="2" height="2" fill="#16263f"/><rect x="1130" y="142" width="2" height="2" fill="#16263f"/><rect x="1156" y="142" width="2" height="2" fill="#16263f"/><rect x="1182" y="142" width="2" height="2" fill="#16263f"/><rect x="12" y="168" width="2" height="2" fill="#16263f"/><rect x="38" y="168" width="2" height="2" fill="#16263f"/><rect x="64" y="168" width="2" height="2" fill="#16263f"/><rect x="90" y="168" width="2" height="2" fill="#16263f"/><rect x="116" y="168" width="2" height="2" fill="#16263f"/><rect x="142" y="168" width="2" height="2" fill="#16263f"/><rect x="168" y="168" width="2" height="2" fill="#16263f"/><rect x="194" y="168" width="2" height="2" fill="#16263f"/><rect x="220" y="168" width="2" height="2" fill="#16263f"/><rect x="246" y="168" width="2" height="2" fill="#16263f"/><rect x="272" y="168" width="2" height="2" fill="#16263f"/><rect x="298" y="168" width="2" height="2" fill="#16263f"/><rect x="324" y="168" width="2" height="2" fill="#16263f"/><rect x="350" y="168" width="2" height="2" fill="#16263f"/><rect x="376" y="168" width="2" height="2" fill="#16263f"/><rect x="402" y="168" width="2" height="2" fill="#16263f"/><rect x="428" y="168" width="2" height="2" fill="#16263f"/><rect x="454" y="168" width="2" height="2" fill="#16263f"/><rect x="480" y="168" width="2" height="2" fill="#16263f"/><rect x="506" y="168" width="2" height="2" fill="#16263f"/><rect x="532" y="168" width="2" height="2" fill="#16263f"/><rect x="558" y="168" width="2" height="2" fill="#16263f"/><rect x="584" y="168" width="2" height="2" fill="#16263f"/><rect x="610" y="168" width="2" height="2" fill="#16263f"/><rect x="636" y="168" width="2" height="2" fill="#16263f"/><rect x="662" y="168" width="2" height="2" fill="#16263f"/><rect x="688" y="168" width="2" height="2" fill="#16263f"/><rect x="714" y="168" width="2" height="2" fill="#16263f"/><rect x="740" y="168" width="2" height="2" fill="#16263f"/><rect x="766" y="168" width="2" height="2" fill="#16263f"/><rect x="792" y="168" width="2" height="2" fill="#16263f"/><rect x="818" y="168" width="2" height="2" fill="#16263f"/><rect x="844" y="168" width="2" height="2" fill="#16263f"/><rect x="870" y="168" width="2" height="2" fill="#16263f"/><rect x="896" y="168" width="2" height="2" fill="#16263f"/><rect x="922" y="168" width="2" height="2" fill="#16263f"/><rect x="948" y="168" width="2" height="2" fill="#16263f"/><rect x="974" y="168" width="2" height="2" fill="#16263f"/><rect x="1000" y="168" width="2" height="2" fill="#16263f"/><rect x="1026" y="168" width="2" height="2" fill="#16263f"/><rect x="1052" y="168" width="2" height="2" fill="#16263f"/><rect x="1078" y="168" width="2" height="2" fill="#16263f"/><rect x="1104" y="168" width="2" height="2" fill="#16263f"/><rect x="1130" y="168" width="2" height="2" fill="#16263f"/><rect x="1156" y="168" width="2" height="2" fill="#16263f"/><rect x="1182" y="168" width="2" height="2" fill="#16263f"/><rect x="12" y="194" width="2" height="2" fill="#16263f"/><rect x="38" y="194" width="2" height="2" fill="#16263f"/><rect x="64" y="194" width="2" height="2" fill="#16263f"/><rect x="90" y="194" width="2" height="2" fill="#16263f"/><rect x="116" y="194" width="2" height="2" fill="#16263f"/><rect x="142" y="194" width="2" height="2" fill="#16263f"/><rect x="168" y="194" width="2" height="2" fill="#16263f"/><rect x="194" y="194" width="2" height="2" fill="#16263f"/><rect x="220" y="194" width="2" height="2" fill="#16263f"/><rect x="246" y="194" width="2" height="2" fill="#16263f"/><rect x="272" y="194" width="2" height="2" fill="#16263f"/><rect x="298" y="194" width="2" height="2" fill="#16263f"/><rect x="324" y="194" width="2" height="2" fill="#16263f"/><rect x="350" y="194" width="2" height="2" fill="#16263f"/><rect x="376" y="194" width="2" height="2" fill="#16263f"/><rect x="402" y="194" width="2" height="2" fill="#16263f"/><rect x="428" y="194" width="2" height="2" fill="#16263f"/><rect x="454" y="194" width="2" height="2" fill="#16263f"/><rect x="480" y="194" width="2" height="2" fill="#16263f"/><rect x="506" y="194" width="2" height="2" fill="#16263f"/><rect x="532" y="194" width="2" height="2" fill="#16263f"/><rect x="558" y="194" width="2" height="2" fill="#16263f"/><rect x="584" y="194" width="2" height="2" fill="#16263f"/><rect x="610" y="194" width="2" height="2" fill="#16263f"/><rect x="636" y="194" width="2" height="2" fill="#16263f"/><rect x="662" y="194" width="2" height="2" fill="#16263f"/><rect x="688" y="194" width="2" height="2" fill="#16263f"/><rect x="714" y="194" width="2" height="2" fill="#16263f"/><rect x="740" y="194" width="2" height="2" fill="#16263f"/><rect x="766" y="194" width="2" height="2" fill="#16263f"/><rect x="792" y="194" width="2" height="2" fill="#16263f"/><rect x="818" y="194" width="2" height="2" fill="#16263f"/><rect x="844" y="194" width="2" height="2" fill="#16263f"/><rect x="870" y="194" width="2" height="2" fill="#16263f"/><rect x="896" y="194" width="2" height="2" fill="#16263f"/><rect x="922" y="194" width="2" height="2" fill="#16263f"/><rect x="948" y="194" width="2" height="2" fill="#16263f"/><rect x="974" y="194" width="2" height="2" fill="#16263f"/><rect x="1000" y="194" width="2" height="2" fill="#16263f"/><rect x="1026" y="194" width="2" height="2" fill="#16263f"/><rect x="1052" y="194" width="2" height="2" fill="#16263f"/><rect x="1078" y="194" width="2" height="2" fill="#16263f"/><rect x="1104" y="194" width="2" height="2" fill="#16263f"/><rect x="1130" y="194" width="2" height="2" fill="#16263f"/><rect x="1156" y="194" width="2" height="2" fill="#16263f"/><rect x="1182" y="194" width="2" height="2" fill="#16263f"/><rect x="12" y="220" width="2" height="2" fill="#16263f"/><rect x="38" y="220" width="2" height="2" fill="#16263f"/><rect x="64" y="220" width="2" height="2" fill="#16263f"/><rect x="90" y="220" width="2" height="2" fill="#16263f"/><rect x="116" y="220" width="2" height="2" fill="#16263f"/><rect x="142" y="220" width="2" height="2" fill="#16263f"/><rect x="168" y="220" width="2" height="2" fill="#16263f"/><rect x="194" y="220" width="2" height="2" fill="#16263f"/><rect x="220" y="220" width="2" height="2" fill="#16263f"/><rect x="246" y="220" width="2" height="2" fill="#16263f"/><rect x="272" y="220" width="2" height="2" fill="#16263f"/><rect x="298" y="220" width="2" height="2" fill="#16263f"/><rect x="324" y="220" width="2" height="2" fill="#16263f"/><rect x="350" y="220" width="2" height="2" fill="#16263f"/><rect x="376" y="220" width="2" height="2" fill="#16263f"/><rect x="402" y="220" width="2" height="2" fill="#16263f"/><rect x="428" y="220" width="2" height="2" fill="#16263f"/><rect x="454" y="220" width="2" height="2" fill="#16263f"/><rect x="480" y="220" width="2" height="2" fill="#16263f"/><rect x="506" y="220" width="2" height="2" fill="#16263f"/><rect x="532" y="220" width="2" height="2" fill="#16263f"/><rect x="558" y="220" width="2" height="2" fill="#16263f"/><rect x="584" y="220" width="2" height="2" fill="#16263f"/><rect x="610" y="220" width="2" height="2" fill="#16263f"/><rect x="636" y="220" width="2" height="2" fill="#16263f"/><rect x="662" y="220" width="2" height="2" fill="#16263f"/><rect x="688" y="220" width="2" height="2" fill="#16263f"/><rect x="714" y="220" width="2" height="2" fill="#16263f"/><rect x="740" y="220" width="2" height="2" fill="#16263f"/><rect x="766" y="220" width="2" height="2" fill="#16263f"/><rect x="792" y="220" width="2" height="2" fill="#16263f"/><rect x="818" y="220" width="2" height="2" fill="#16263f"/><rect x="844" y="220" width="2" height="2" fill="#16263f"/><rect x="870" y="220" width="2" height="2" fill="#16263f"/><rect x="896" y="220" width="2" height="2" fill="#16263f"/><rect x="922" y="220" width="2" height="2" fill="#16263f"/><rect x="948" y="220" width="2" height="2" fill="#16263f"/><rect x="974" y="220" width="2" height="2" fill="#16263f"/><rect x="1000" y="220" width="2" height="2" fill="#16263f"/><rect x="1026" y="220" width="2" height="2" fill="#16263f"/><rect x="1052" y="220" width="2" height="2" fill="#16263f"/><rect x="1078" y="220" width="2" height="2" fill="#16263f"/><rect x="1104" y="220" width="2" height="2" fill="#16263f"/><rect x="1130" y="220" width="2" height="2" fill="#16263f"/><rect x="1156" y="220" width="2" height="2" fill="#16263f"/><rect x="1182" y="220" width="2" height="2" fill="#16263f"/><rect x="12" y="246" width="2" height="2" fill="#16263f"/><rect x="38" y="246" width="2" height="2" fill="#16263f"/><rect x="64" y="246" width="2" height="2" fill="#16263f"/><rect x="90" y="246" width="2" height="2" fill="#16263f"/><rect x="116" y="246" width="2" height="2" fill="#16263f"/><rect x="142" y="246" width="2" height="2" fill="#16263f"/><rect x="168" y="246" width="2" height="2" fill="#16263f"/><rect x="194" y="246" width="2" height="2" fill="#16263f"/><rect x="220" y="246" width="2" height="2" fill="#16263f"/><rect x="246" y="246" width="2" height="2" fill="#16263f"/><rect x="272" y="246" width="2" height="2" fill="#16263f"/><rect x="298" y="246" width="2" height="2" fill="#16263f"/><rect x="324" y="246" width="2" height="2" fill="#16263f"/><rect x="350" y="246" width="2" height="2" fill="#16263f"/><rect x="376" y="246" width="2" height="2" fill="#16263f"/><rect x="402" y="246" width="2" height="2" fill="#16263f"/><rect x="428" y="246" width="2" height="2" fill="#16263f"/><rect x="454" y="246" width="2" height="2" fill="#16263f"/><rect x="480" y="246" width="2" height="2" fill="#16263f"/><rect x="506" y="246" width="2" height="2" fill="#16263f"/><rect x="532" y="246" width="2" height="2" fill="#16263f"/><rect x="558" y="246" width="2" height="2" fill="#16263f"/><rect x="584" y="246" width="2" height="2" fill="#16263f"/><rect x="610" y="246" width="2" height="2" fill="#16263f"/><rect x="636" y="246" width="2" height="2" fill="#16263f"/><rect x="662" y="246" width="2" height="2" fill="#16263f"/><rect x="688" y="246" width="2" height="2" fill="#16263f"/><rect x="714" y="246" width="2" height="2" fill="#16263f"/><rect x="740" y="246" width="2" height="2" fill="#16263f"/><rect x="766" y="246" width="2" height="2" fill="#16263f"/><rect x="792" y="246" width="2" height="2" fill="#16263f"/><rect x="818" y="246" width="2" height="2" fill="#16263f"/><rect x="844" y="246" width="2" height="2" fill="#16263f"/><rect x="870" y="246" width="2" height="2" fill="#16263f"/><rect x="896" y="246" width="2" height="2" fill="#16263f"/><rect x="922" y="246" width="2" height="2" fill="#16263f"/><rect x="948" y="246" width="2" height="2" fill="#16263f"/><rect x="974" y="246" width="2" height="2" fill="#16263f"/><rect x="1000" y="246" width="2" height="2" fill="#16263f"/><rect x="1026" y="246" width="2" height="2" fill="#16263f"/><rect x="1052" y="246" width="2" height="2" fill="#16263f"/><rect x="1078" y="246" width="2" height="2" fill="#16263f"/><rect x="1104" y="246" width="2" height="2" fill="#16263f"/><rect x="1130" y="246" width="2" height="2" fill="#16263f"/><rect x="1156" y="246" width="2" height="2" fill="#16263f"/><rect x="1182" y="246" width="2" height="2" fill="#16263f"/><rect x="12" y="272" width="2" height="2" fill="#16263f"/><rect x="38" y="272" width="2" height="2" fill="#16263f"/><rect x="64" y="272" width="2" height="2" fill="#16263f"/><rect x="90" y="272" width="2" height="2" fill="#16263f"/><rect x="116" y="272" width="2" height="2" fill="#16263f"/><rect x="142" y="272" width="2" height="2" fill="#16263f"/><rect x="168" y="272" width="2" height="2" fill="#16263f"/><rect x="194" y="272" width="2" height="2" fill="#16263f"/><rect x="220" y="272" width="2" height="2" fill="#16263f"/><rect x="246" y="272" width="2" height="2" fill="#16263f"/><rect x="272" y="272" width="2" height="2" fill="#16263f"/><rect x="298" y="272" width="2" height="2" fill="#16263f"/><rect x="324" y="272" width="2" height="2" fill="#16263f"/><rect x="350" y="272" width="2" height="2" fill="#16263f"/><rect x="376" y="272" width="2" height="2" fill="#16263f"/><rect x="402" y="272" width="2" height="2" fill="#16263f"/><rect x="428" y="272" width="2" height="2" fill="#16263f"/><rect x="454" y="272" width="2" height="2" fill="#16263f"/><rect x="480" y="272" width="2" height="2" fill="#16263f"/><rect x="506" y="272" width="2" height="2" fill="#16263f"/><rect x="532" y="272" width="2" height="2" fill="#16263f"/><rect x="558" y="272" width="2" height="2" fill="#16263f"/><rect x="584" y="272" width="2" height="2" fill="#16263f"/><rect x="610" y="272" width="2" height="2" fill="#16263f"/><rect x="636" y="272" width="2" height="2" fill="#16263f"/><rect x="662" y="272" width="2" height="2" fill="#16263f"/><rect x="688" y="272" width="2" height="2" fill="#16263f"/><rect x="714" y="272" width="2" height="2" fill="#16263f"/><rect x="740" y="272" width="2" height="2" fill="#16263f"/><rect x="766" y="272" width="2" height="2" fill="#16263f"/><rect x="792" y="272" width="2" height="2" fill="#16263f"/><rect x="818" y="272" width="2" height="2" fill="#16263f"/><rect x="844" y="272" width="2" height="2" fill="#16263f"/><rect x="870" y="272" width="2" height="2" fill="#16263f"/><rect x="896" y="272" width="2" height="2" fill="#16263f"/><rect x="922" y="272" width="2" height="2" fill="#16263f"/><rect x="948" y="272" width="2" height="2" fill="#16263f"/><rect x="974" y="272" width="2" height="2" fill="#16263f"/><rect x="1000" y="272" width="2" height="2" fill="#16263f"/><rect x="1026" y="272" width="2" height="2" fill="#16263f"/><rect x="1052" y="272" width="2" height="2" fill="#16263f"/><rect x="1078" y="272" width="2" height="2" fill="#16263f"/><rect x="1104" y="272" width="2" height="2" fill="#16263f"/><rect x="1130" y="272" width="2" height="2" fill="#16263f"/><rect x="1156" y="272" width="2" height="2" fill="#16263f"/><rect x="1182" y="272" width="2" height="2" fill="#16263f"/><rect x="12" y="298" width="2" height="2" fill="#16263f"/><rect x="38" y="298" width="2" height="2" fill="#16263f"/><rect x="64" y="298" width="2" height="2" fill="#16263f"/><rect x="90" y="298" width="2" height="2" fill="#16263f"/><rect x="116" y="298" width="2" height="2" fill="#16263f"/><rect x="142" y="298" width="2" height="2" fill="#16263f"/><rect x="168" y="298" width="2" height="2" fill="#16263f"/><rect x="194" y="298" width="2" height="2" fill="#16263f"/><rect x="220" y="298" width="2" height="2" fill="#16263f"/><rect x="246" y="298" width="2" height="2" fill="#16263f"/><rect x="272" y="298" width="2" height="2" fill="#16263f"/><rect x="298" y="298" width="2" height="2" fill="#16263f"/><rect x="324" y="298" width="2" height="2" fill="#16263f"/><rect x="350" y="298" width="2" height="2" fill="#16263f"/><rect x="376" y="298" width="2" height="2" fill="#16263f"/><rect x="402" y="298" width="2" height="2" fill="#16263f"/><rect x="428" y="298" width="2" height="2" fill="#16263f"/><rect x="454" y="298" width="2" height="2" fill="#16263f"/><rect x="480" y="298" width="2" height="2" fill="#16263f"/><rect x="506" y="298" width="2" height="2" fill="#16263f"/><rect x="532" y="298" width="2" height="2" fill="#16263f"/><rect x="558" y="298" width="2" height="2" fill="#16263f"/><rect x="584" y="298" width="2" height="2" fill="#16263f"/><rect x="610" y="298" width="2" height="2" fill="#16263f"/><rect x="636" y="298" width="2" height="2" fill="#16263f"/><rect x="662" y="298" width="2" height="2" fill="#16263f"/><rect x="688" y="298" width="2" height="2" fill="#16263f"/><rect x="714" y="298" width="2" height="2" fill="#16263f"/><rect x="740" y="298" width="2" height="2" fill="#16263f"/><rect x="766" y="298" width="2" height="2" fill="#16263f"/><rect x="792" y="298" width="2" height="2" fill="#16263f"/><rect x="818" y="298" width="2" height="2" fill="#16263f"/><rect x="844" y="298" width="2" height="2" fill="#16263f"/><rect x="870" y="298" width="2" height="2" fill="#16263f"/><rect x="896" y="298" width="2" height="2" fill="#16263f"/><rect x="922" y="298" width="2" height="2" fill="#16263f"/><rect x="948" y="298" width="2" height="2" fill="#16263f"/><rect x="974" y="298" width="2" height="2" fill="#16263f"/><rect x="1000" y="298" width="2" height="2" fill="#16263f"/><rect x="1026" y="298" width="2" height="2" fill="#16263f"/><rect x="1052" y="298" width="2" height="2" fill="#16263f"/><rect x="1078" y="298" width="2" height="2" fill="#16263f"/><rect x="1104" y="298" width="2" height="2" fill="#16263f"/><rect x="1130" y="298" width="2" height="2" fill="#16263f"/><rect x="1156" y="298" width="2" height="2" fill="#16263f"/><rect x="1182" y="298" width="2" height="2" fill="#16263f"/><rect x="12" y="324" width="2" height="2" fill="#16263f"/><rect x="38" y="324" width="2" height="2" fill="#16263f"/><rect x="64" y="324" width="2" height="2" fill="#16263f"/><rect x="90" y="324" width="2" height="2" fill="#16263f"/><rect x="116" y="324" width="2" height="2" fill="#16263f"/><rect x="142" y="324" width="2" height="2" fill="#16263f"/><rect x="168" y="324" width="2" height="2" fill="#16263f"/><rect x="194" y="324" width="2" height="2" fill="#16263f"/><rect x="220" y="324" width="2" height="2" fill="#16263f"/><rect x="246" y="324" width="2" height="2" fill="#16263f"/><rect x="272" y="324" width="2" height="2" fill="#16263f"/><rect x="298" y="324" width="2" height="2" fill="#16263f"/><rect x="324" y="324" width="2" height="2" fill="#16263f"/><rect x="350" y="324" width="2" height="2" fill="#16263f"/><rect x="376" y="324" width="2" height="2" fill="#16263f"/><rect x="402" y="324" width="2" height="2" fill="#16263f"/><rect x="428" y="324" width="2" height="2" fill="#16263f"/><rect x="454" y="324" width="2" height="2" fill="#16263f"/><rect x="480" y="324" width="2" height="2" fill="#16263f"/><rect x="506" y="324" width="2" height="2" fill="#16263f"/><rect x="532" y="324" width="2" height="2" fill="#16263f"/><rect x="558" y="324" width="2" height="2" fill="#16263f"/><rect x="584" y="324" width="2" height="2" fill="#16263f"/><rect x="610" y="324" width="2" height="2" fill="#16263f"/><rect x="636" y="324" width="2" height="2" fill="#16263f"/><rect x="662" y="324" width="2" height="2" fill="#16263f"/><rect x="688" y="324" width="2" height="2" fill="#16263f"/><rect x="714" y="324" width="2" height="2" fill="#16263f"/><rect x="740" y="324" width="2" height="2" fill="#16263f"/><rect x="766" y="324" width="2" height="2" fill="#16263f"/><rect x="792" y="324" width="2" height="2" fill="#16263f"/><rect x="818" y="324" width="2" height="2" fill="#16263f"/><rect x="844" y="324" width="2" height="2" fill="#16263f"/><rect x="870" y="324" width="2" height="2" fill="#16263f"/><rect x="896" y="324" width="2" height="2" fill="#16263f"/><rect x="922" y="324" width="2" height="2" fill="#16263f"/><rect x="948" y="324" width="2" height="2" fill="#16263f"/><rect x="974" y="324" width="2" height="2" fill="#16263f"/><rect x="1000" y="324" width="2" height="2" fill="#16263f"/><rect x="1026" y="324" width="2" height="2" fill="#16263f"/><rect x="1052" y="324" width="2" height="2" fill="#16263f"/><rect x="1078" y="324" width="2" height="2" fill="#16263f"/><rect x="1104" y="324" width="2" height="2" fill="#16263f"/><rect x="1130" y="324" width="2" height="2" fill="#16263f"/><rect x="1156" y="324" width="2" height="2" fill="#16263f"/><rect x="1182" y="324" width="2" height="2" fill="#16263f"/><rect x="12" y="350" width="2" height="2" fill="#16263f"/><rect x="38" y="350" width="2" height="2" fill="#16263f"/><rect x="64" y="350" width="2" height="2" fill="#16263f"/><rect x="90" y="350" width="2" height="2" fill="#16263f"/><rect x="116" y="350" width="2" height="2" fill="#16263f"/><rect x="142" y="350" width="2" height="2" fill="#16263f"/><rect x="168" y="350" width="2" height="2" fill="#16263f"/><rect x="194" y="350" width="2" height="2" fill="#16263f"/><rect x="220" y="350" width="2" height="2" fill="#16263f"/><rect x="246" y="350" width="2" height="2" fill="#16263f"/><rect x="272" y="350" width="2" height="2" fill="#16263f"/><rect x="298" y="350" width="2" height="2" fill="#16263f"/><rect x="324" y="350" width="2" height="2" fill="#16263f"/><rect x="350" y="350" width="2" height="2" fill="#16263f"/><rect x="376" y="350" width="2" height="2" fill="#16263f"/><rect x="402" y="350" width="2" height="2" fill="#16263f"/><rect x="428" y="350" width="2" height="2" fill="#16263f"/><rect x="454" y="350" width="2" height="2" fill="#16263f"/><rect x="480" y="350" width="2" height="2" fill="#16263f"/><rect x="506" y="350" width="2" height="2" fill="#16263f"/><rect x="532" y="350" width="2" height="2" fill="#16263f"/><rect x="558" y="350" width="2" height="2" fill="#16263f"/><rect x="584" y="350" width="2" height="2" fill="#16263f"/><rect x="610" y="350" width="2" height="2" fill="#16263f"/><rect x="636" y="350" width="2" height="2" fill="#16263f"/><rect x="662" y="350" width="2" height="2" fill="#16263f"/><rect x="688" y="350" width="2" height="2" fill="#16263f"/><rect x="714" y="350" width="2" height="2" fill="#16263f"/><rect x="740" y="350" width="2" height="2" fill="#16263f"/><rect x="766" y="350" width="2" height="2" fill="#16263f"/><rect x="792" y="350" width="2" height="2" fill="#16263f"/><rect x="818" y="350" width="2" height="2" fill="#16263f"/><rect x="844" y="350" width="2" height="2" fill="#16263f"/><rect x="870" y="350" width="2" height="2" fill="#16263f"/><rect x="896" y="350" width="2" height="2" fill="#16263f"/><rect x="922" y="350" width="2" height="2" fill="#16263f"/><rect x="948" y="350" width="2" height="2" fill="#16263f"/><rect x="974" y="350" width="2" height="2" fill="#16263f"/><rect x="1000" y="350" width="2" height="2" fill="#16263f"/><rect x="1026" y="350" width="2" height="2" fill="#16263f"/><rect x="1052" y="350" width="2" height="2" fill="#16263f"/><rect x="1078" y="350" width="2" height="2" fill="#16263f"/><rect x="1104" y="350" width="2" height="2" fill="#16263f"/><rect x="1130" y="350" width="2" height="2" fill="#16263f"/><rect x="1156" y="350" width="2" height="2" fill="#16263f"/><rect x="1182" y="350" width="2" height="2" fill="#16263f"/></g>
<rect x="0" y="0" width="1200" height="2" fill="#34e6f2" opacity="0.5"/>
<rect x="0" y="372" width="1200" height="2" fill="#a855f7" opacity="0.5"/>
<g filter="url(#glow)"><rect x="399.5" y="104.5" width="10" height="10" rx="1" fill="#34e6f2"/><rect x="388.5" y="115.5" width="10" height="10" rx="1" fill="#34e6f2"/><rect x="399.5" y="115.5" width="10" height="10" rx="1" fill="#a855f7"/><rect x="410.5" y="115.5" width="10" height="10" rx="1" fill="#34e6f2"/><rect x="377.5" y="126.5" width="10" height="10" rx="1" fill="#34e6f2"/><rect x="388.5" y="126.5" width="10" height="10" rx="1" fill="#a855f7"/><rect x="399.5" y="126.5" width="10" height="10" rx="1" fill="#34e6f2"/><rect x="410.5" y="126.5" width="10" height="10" rx="1" fill="#a855f7"/><rect x="421.5" y="126.5" width="10" height="10" rx="1" fill="#34e6f2"/><rect x="388.5" y="137.5" width="10" height="10" rx="1" fill="#34e6f2"/><rect x="399.5" y="137.5" width="10" height="10" rx="1" fill="#a855f7"/><rect x="410.5" y="137.5" width="10" height="10" rx="1" fill="#34e6f2"/><rect x="399.5" y="148.5" width="10" height="10" rx="1" fill="#34e6f2"/><rect x="358" y="85" width="6" height="6" rx="1" fill="#f5b942"/><rect x="446" y="85" width="6" height="6" rx="1" fill="#34e6f2"/><rect x="446" y="173" width="6" height="6" rx="1" fill="#a855f7"/><rect x="358" y="173" width="6" height="6" rx="1" fill="#3b82f6"/></g>
<g filter="url(#glow)"><rect x="490" y="62" width="19" height="19" rx="1" fill="url(#wm)"/>
<rect x="510" y="62" width="19" height="19" rx="1" fill="url(#wm)"/>
<rect x="530" y="62" width="19" height="19" rx="1" fill="url(#wm)"/>
<rect x="470" y="82" width="19" height="19" rx="1" fill="url(#wm)"/>
<rect x="550" y="82" width="19" height="19" rx="1" fill="url(#wm)"/>
<rect x="470" y="102" width="19" height="19" rx="1" fill="url(#wm)"/>
<rect x="470" y="122" width="19" height="19" rx="1" fill="url(#wm)"/>
<rect x="510" y="122" width="19" height="19" rx="1" fill="url(#wm)"/>
<rect x="530" y="122" width="19" height="19" rx="1" fill="url(#wm)"/>
<rect x="550" y="122" width="19" height="19" rx="1" fill="url(#wm)"/>
<rect x="470" y="142" width="19" height="19" rx="1" fill="url(#wm)"/>
<rect x="550" y="142" width="19" height="19" rx="1" fill="url(#wm)"/>
<rect x="470" y="162" width="19" height="19" rx="1" fill="url(#wm)"/>
<rect x="550" y="162" width="19" height="19" rx="1" fill="url(#wm)"/>
<rect x="490" y="182" width="19" height="19" rx="1" fill="url(#wm)"/>
<rect x="510" y="182" width="19" height="19" rx="1" fill="url(#wm)"/>
<rect x="530" y="182" width="19" height="19" rx="1" fill="url(#wm)"/>
<rect x="610" y="62" width="19" height="19" rx="1" fill="url(#wm)"/>
<rect x="630" y="62" width="19" height="19" rx="1" fill="url(#wm)"/>
<rect x="650" y="62" width="19" height="19" rx="1" fill="url(#wm)"/>
<rect x="590" y="82" width="19" height="19" rx="1" fill="url(#wm)"/>
<rect x="670" y="82" width="19" height="19" rx="1" fill="url(#wm)"/>
<rect x="590" y="102" width="19" height="19" rx="1" fill="url(#wm)"/>
<rect x="670" y="102" width="19" height="19" rx="1" fill="url(#wm)"/>
<rect x="590" y="122" width="19" height="19" rx="1" fill="url(#wm)"/>
<rect x="610" y="122" width="19" height="19" rx="1" fill="url(#wm)"/>
<rect x="630" y="122" width="19" height="19" rx="1" fill="url(#wm)"/>
<rect x="650" y="122" width="19" height="19" rx="1" fill="url(#wm)"/>
<rect x="670" y="122" width="19" height="19" rx="1" fill="url(#wm)"/>
<rect x="590" y="142" width="19" height="19" rx="1" fill="url(#wm)"/>
<rect x="670" y="142" width="19" height="19" rx="1" fill="url(#wm)"/>
<rect x="590" y="162" width="19" height="19" rx="1" fill="url(#wm)"/>
<rect x="670" y="162" width="19" height="19" rx="1" fill="url(#wm)"/>
<rect x="590" y="182" width="19" height="19" rx="1" fill="url(#wm)"/>
<rect x="670" y="182" width="19" height="19" rx="1" fill="url(#wm)"/>
<rect x="710" y="62" width="19" height="19" rx="1" fill="url(#wm)"/>
<rect x="730" y="62" width="19" height="19" rx="1" fill="url(#wm)"/>
<rect x="750" y="62" width="19" height="19" rx="1" fill="url(#wm)"/>
<rect x="770" y="62" width="19" height="19" rx="1" fill="url(#wm)"/>
<rect x="790" y="62" width="19" height="19" rx="1" fill="url(#wm)"/>
<rect x="750" y="82" width="19" height="19" rx="1" fill="url(#wm)"/>
<rect x="750" y="102" width="19" height="19" rx="1" fill="url(#wm)"/>
<rect x="750" y="122" width="19" height="19" rx="1" fill="url(#wm)"/>
<rect x="750" y="142" width="19" height="19" rx="1" fill="url(#wm)"/>
<rect x="750" y="162" width="19" height="19" rx="1" fill="url(#wm)"/>
<rect x="750" y="182" width="19" height="19" rx="1" fill="url(#wm)"/></g>
<text x="587.5" y="238" text-anchor="middle" font-family="'Consolas',monospace" font-size="20" font-weight="700" letter-spacing="8" fill="#34e6f2">GODOT · AGENT · TEAM</text>
<text x="587.5" y="266" text-anchor="middle" font-family="'Consolas',monospace" font-size="13.5" letter-spacing="1.5" fill="#6f8fbf">full-cycle game-dev agent — design ▸ implementation</text>
<rect x="357.0" y="316.0" width="30" height="2" fill="#6f8fbf"/>
<polygon points="381.0,313.0 387.0,317.0 381.0,321.0" fill="#34e6f2"/>
<rect x="509.0" y="316.0" width="30" height="2" fill="#6f8fbf"/>
<polygon points="533.0,313.0 539.0,317.0 533.0,321.0" fill="#34e6f2"/>
<rect x="661.0" y="316.0" width="30" height="2" fill="#6f8fbf"/>
<polygon points="685.0,313.0 691.0,317.0 685.0,321.0" fill="#34e6f2"/>
<rect x="813.0" y="316.0" width="30" height="2" fill="#6f8fbf"/>
<polygon points="837.0,313.0 843.0,317.0 837.0,321.0" fill="#34e6f2"/>

  <g>
    <rect x="235.0" y="300" width="122" height="34" rx="6" fill="#0e1b30" stroke="#34e6f2" stroke-width="1.5"/>
    <rect x="235.0" y="300" width="122" height="4" rx="2" fill="#34e6f2"/>
    <rect x="242.0" y="325" width="108" height="2" rx="1" fill="#34e6f2" opacity="0.35"/>
    <text x="296.0" y="322.0" text-anchor="middle" font-family="'Consolas','DejaVu Sans Mono',monospace"
          font-size="13" font-weight="700" letter-spacing="1" fill="#dbeafe">DESIGN</text>
  </g>

  <g>
    <rect x="387.0" y="300" width="122" height="34" rx="6" fill="#0e1b30" stroke="#f5b942" stroke-width="1.5"/>
    <rect x="387.0" y="300" width="122" height="4" rx="2" fill="#f5b942"/>
    <rect x="394.0" y="325" width="108" height="2" rx="1" fill="#f5b942" opacity="0.35"/>
    <text x="448.0" y="322.0" text-anchor="middle" font-family="'Consolas','DejaVu Sans Mono',monospace"
          font-size="13" font-weight="700" letter-spacing="1" fill="#dbeafe">STYLE-LOCK</text>
  </g>

  <g>
    <rect x="539.0" y="300" width="122" height="34" rx="6" fill="#0e1b30" stroke="#d946ef" stroke-width="1.5"/>
    <rect x="539.0" y="300" width="122" height="4" rx="2" fill="#d946ef"/>
    <rect x="546.0" y="325" width="108" height="2" rx="1" fill="#d946ef" opacity="0.35"/>
    <text x="600.0" y="322.0" text-anchor="middle" font-family="'Consolas','DejaVu Sans Mono',monospace"
          font-size="13" font-weight="700" letter-spacing="1" fill="#dbeafe">ASSETS</text>
  </g>

  <g>
    <rect x="691.0" y="300" width="122" height="34" rx="6" fill="#0e1b30" stroke="#3b82f6" stroke-width="1.5"/>
    <rect x="691.0" y="300" width="122" height="4" rx="2" fill="#3b82f6"/>
    <rect x="698.0" y="325" width="108" height="2" rx="1" fill="#3b82f6" opacity="0.35"/>
    <text x="752.0" y="322.0" text-anchor="middle" font-family="'Consolas','DejaVu Sans Mono',monospace"
          font-size="13" font-weight="700" letter-spacing="1" fill="#dbeafe">IMPLEMENT</text>
  </g>

  <g>
    <rect x="843.0" y="300" width="122" height="34" rx="6" fill="#0e1b30" stroke="#34d399" stroke-width="1.5"/>
    <rect x="843.0" y="300" width="122" height="4" rx="2" fill="#34d399"/>
    <rect x="850.0" y="325" width="108" height="2" rx="1" fill="#34d399" opacity="0.35"/>
    <text x="904.0" y="322.0" text-anchor="middle" font-family="'Consolas','DejaVu Sans Mono',monospace"
          font-size="13" font-weight="700" letter-spacing="1" fill="#dbeafe">VERIFY</text>
  </g>
<text x="600.0" y="352" text-anchor="middle" font-family="'Consolas',monospace" font-size="11" letter-spacing="3" fill="#a855f7">↺  S E L F - E V O L V I N G   ·   S T Y L E - L O C K E D  ↺</text>
</svg>