<svg xmlns="http://www.w3.org/2000/svg" viewBox="0 0 1040 300" font-family="monospace">
<defs>
      <linearGradient id="bg" x1="0" y1="0" x2="0" y2="1"><stop offset="0" stop-color="#070b16"/><stop offset="1" stop-color="#0b1524"/></linearGradient>
      <filter id="glow" x="-50%" y="-50%" width="200%" height="200%"><feGaussianBlur stdDeviation="3.5" result="b"/><feMerge><feMergeNode in="b"/><feMergeNode in="SourceGraphic"/></feMerge></filter>
    </defs>
<rect width="1040" height="300" fill="url(#bg)"/>
<g opacity="0.55"><rect x="12" y="12" width="2" height="2" fill="#16263f"/><rect x="38" y="12" width="2" height="2" fill="#16263f"/><rect x="64" y="12" width="2" height="2" fill="#16263f"/><rect x="90" y="12" width="2" height="2" fill="#16263f"/><rect x="116" y="12" width="2" height="2" fill="#16263f"/><rect x="142" y="12" width="2" height="2" fill="#16263f"/><rect x="168" y="12" width="2" height="2" fill="#16263f"/><rect x="194" y="12" width="2" height="2" fill="#16263f"/><rect x="220" y="12" width="2" height="2" fill="#16263f"/><rect x="246" y="12" width="2" height="2" fill="#16263f"/><rect x="272" y="12" width="2" height="2" fill="#16263f"/><rect x="298" y="12" width="2" height="2" fill="#16263f"/><rect x="324" y="12" width="2" height="2" fill="#16263f"/><rect x="350" y="12" width="2" height="2" fill="#16263f"/><rect x="376" y="12" width="2" height="2" fill="#16263f"/><rect x="402" y="12" width="2" height="2" fill="#16263f"/><rect x="428" y="12" width="2" height="2" fill="#16263f"/><rect x="454" y="12" width="2" height="2" fill="#16263f"/><rect x="480" y="12" width="2" height="2" fill="#16263f"/><rect x="506" y="12" width="2" height="2" fill="#16263f"/><rect x="532" y="12" width="2" height="2" fill="#16263f"/><rect x="558" y="12" width="2" height="2" fill="#16263f"/><rect x="584" y="12" width="2" height="2" fill="#16263f"/><rect x="610" y="12" width="2" height="2" fill="#16263f"/><rect x="636" y="12" width="2" height="2" fill="#16263f"/><rect x="662" y="12" width="2" height="2" fill="#16263f"/><rect x="688" y="12" width="2" height="2" fill="#16263f"/><rect x="714" y="12" width="2" height="2" fill="#16263f"/><rect x="740" y="12" width="2" height="2" fill="#16263f"/><rect x="766" y="12" width="2" height="2" fill="#16263f"/><rect x="792" y="12" width="2" height="2" fill="#16263f"/><rect x="818" y="12" width="2" height="2" fill="#16263f"/><rect x="844" y="12" width="2" height="2" fill="#16263f"/><rect x="870" y="12" width="2" height="2" fill="#16263f"/><rect x="896" y="12" width="2" height="2" fill="#16263f"/><rect x="922" y="12" width="2" height="2" fill="#16263f"/><rect x="948" y="12" width="2" height="2" fill="#16263f"/><rect x="974" y="12" width="2" height="2" fill="#16263f"/><rect x="1000" y="12" width="2" height="2" fill="#16263f"/><rect x="1026" y="12" width="2" height="2" fill="#16263f"/><rect x="12" y="38" width="2" height="2" fill="#16263f"/><rect x="38" y="38" width="2" height="2" fill="#16263f"/><rect x="64" y="38" width="2" height="2" fill="#16263f"/><rect x="90" y="38" width="2" height="2" fill="#16263f"/><rect x="116" y="38" width="2" height="2" fill="#16263f"/><rect x="142" y="38" width="2" height="2" fill="#16263f"/><rect x="168" y="38" width="2" height="2" fill="#16263f"/><rect x="194" y="38" width="2" height="2" fill="#16263f"/><rect x="220" y="38" width="2" height="2" fill="#16263f"/><rect x="246" y="38" width="2" height="2" fill="#16263f"/><rect x="272" y="38" width="2" height="2" fill="#16263f"/><rect x="298" y="38" width="2" height="2" fill="#16263f"/><rect x="324" y="38" width="2" height="2" fill="#16263f"/><rect x="350" y="38" width="2" height="2" fill="#16263f"/><rect x="376" y="38" width="2" height="2" fill="#16263f"/><rect x="402" y="38" width="2" height="2" fill="#16263f"/><rect x="428" y="38" width="2" height="2" fill="#16263f"/><rect x="454" y="38" width="2" height="2" fill="#16263f"/><rect x="480" y="38" width="2" height="2" fill="#16263f"/><rect x="506" y="38" width="2" height="2" fill="#16263f"/><rect x="532" y="38" width="2" height="2" fill="#16263f"/><rect x="558" y="38" width="2" height="2" fill="#16263f"/><rect x="584" y="38" width="2" height="2" fill="#16263f"/><rect x="610" y="38" width="2" height="2" fill="#16263f"/><rect x="636" y="38" width="2" height="2" fill="#16263f"/><rect x="662" y="38" width="2" height="2" fill="#16263f"/><rect x="688" y="38" width="2" height="2" fill="#16263f"/><rect x="714" y="38" width="2" height="2" fill="#16263f"/><rect x="740" y="38" width="2" height="2" fill="#16263f"/><rect x="766" y="38" width="2" height="2" fill="#16263f"/><rect x="792" y="38" width="2" height="2" fill="#16263f"/><rect x="818" y="38" width="2" height="2" fill="#16263f"/><rect x="844" y="38" width="2" height="2" fill="#16263f"/><rect x="870" y="38" width="2" height="2" fill="#16263f"/><rect x="896" y="38" width="2" height="2" fill="#16263f"/><rect x="922" y="38" width="2" height="2" fill="#16263f"/><rect x="948" y="38" width="2" height="2" fill="#16263f"/><rect x="974" y="38" width="2" height="2" fill="#16263f"/><rect x="1000" y="38" width="2" height="2" fill="#16263f"/><rect x="1026" y="38" width="2" height="2" fill="#16263f"/><rect x="12" y="64" width="2" height="2" fill="#16263f"/><rect x="38" y="64" width="2" height="2" fill="#16263f"/><rect x="64" y="64" width="2" height="2" fill="#16263f"/><rect x="90" y="64" width="2" height="2" fill="#16263f"/><rect x="116" y="64" width="2" height="2" fill="#16263f"/><rect x="142" y="64" width="2" height="2" fill="#16263f"/><rect x="168" y="64" width="2" height="2" fill="#16263f"/><rect x="194" y="64" width="2" height="2" fill="#16263f"/><rect x="220" y="64" width="2" height="2" fill="#16263f"/><rect x="246" y="64" width="2" height="2" fill="#16263f"/><rect x="272" y="64" width="2" height="2" fill="#16263f"/><rect x="298" y="64" width="2" height="2" fill="#16263f"/><rect x="324" y="64" width="2" height="2" fill="#16263f"/><rect x="350" y="64" width="2" height="2" fill="#16263f"/><rect x="376" y="64" width="2" height="2" fill="#16263f"/><rect x="402" y="64" width="2" height="2" fill="#16263f"/><rect x="428" y="64" width="2" height="2" fill="#16263f"/><rect x="454" y="64" width="2" height="2" fill="#16263f"/><rect x="480" y="64" width="2" height="2" fill="#16263f"/><rect x="506" y="64" width="2" height="2" fill="#16263f"/><rect x="532" y="64" width="2" height="2" fill="#16263f"/><rect x="558" y="64" width="2" height="2" fill="#16263f"/><rect x="584" y="64" width="2" height="2" fill="#16263f"/><rect x="610" y="64" width="2" height="2" fill="#16263f"/><rect x="636" y="64" width="2" height="2" fill="#16263f"/><rect x="662" y="64" width="2" height="2" fill="#16263f"/><rect x="688" y="64" width="2" height="2" fill="#16263f"/><rect x="714" y="64" width="2" height="2" fill="#16263f"/><rect x="740" y="64" width="2" height="2" fill="#16263f"/><rect x="766" y="64" width="2" height="2" fill="#16263f"/><rect x="792" y="64" width="2" height="2" fill="#16263f"/><rect x="818" y="64" width="2" height="2" fill="#16263f"/><rect x="844" y="64" width="2" height="2" fill="#16263f"/><rect x="870" y="64" width="2" height="2" fill="#16263f"/><rect x="896" y="64" width="2" height="2" fill="#16263f"/><rect x="922" y="64" width="2" height="2" fill="#16263f"/><rect x="948" y="64" width="2" height="2" fill="#16263f"/><rect x="974" y="64" width="2" height="2" fill="#16263f"/><rect x="1000" y="64" width="2" height="2" fill="#16263f"/><rect x="1026" y="64" width="2" height="2" fill="#16263f"/><rect x="12" y="90" width="2" height="2" fill="#16263f"/><rect x="38" y="90" width="2" height="2" fill="#16263f"/><rect x="64" y="90" width="2" height="2" fill="#16263f"/><rect x="90" y="90" width="2" height="2" fill="#16263f"/><rect x="116" y="90" width="2" height="2" fill="#16263f"/><rect x="142" y="90" width="2" height="2" fill="#16263f"/><rect x="168" y="90" width="2" height="2" fill="#16263f"/><rect x="194" y="90" width="2" height="2" fill="#16263f"/><rect x="220" y="90" width="2" height="2" fill="#16263f"/><rect x="246" y="90" width="2" height="2" fill="#16263f"/><rect x="272" y="90" width="2" height="2" fill="#16263f"/><rect x="298" y="90" width="2" height="2" fill="#16263f"/><rect x="324" y="90" width="2" height="2" fill="#16263f"/><rect x="350" y="90" width="2" height="2" fill="#16263f"/><rect x="376" y="90" width="2" height="2" fill="#16263f"/><rect x="402" y="90" width="2" height="2" fill="#16263f"/><rect x="428" y="90" width="2" height="2" fill="#16263f"/><rect x="454" y="90" width="2" height="2" fill="#16263f"/><rect x="480" y="90" width="2" height="2" fill="#16263f"/><rect x="506" y="90" width="2" height="2" fill="#16263f"/><rect x="532" y="90" width="2" height="2" fill="#16263f"/><rect x="558" y="90" width="2" height="2" fill="#16263f"/><rect x="584" y="90" width="2" height="2" fill="#16263f"/><rect x="610" y="90" width="2" height="2" fill="#16263f"/><rect x="636" y="90" width="2" height="2" fill="#16263f"/><rect x="662" y="90" width="2" height="2" fill="#16263f"/><rect x="688" y="90" width="2" height="2" fill="#16263f"/><rect x="714" y="90" width="2" height="2" fill="#16263f"/><rect x="740" y="90" width="2" height="2" fill="#16263f"/><rect x="766" y="90" width="2" height="2" fill="#16263f"/><rect x="792" y="90" width="2" height="2" fill="#16263f"/><rect x="818" y="90" width="2" height="2" fill="#16263f"/><rect x="844" y="90" width="2" height="2" fill="#16263f"/><rect x="870" y="90" width="2" height="2" fill="#16263f"/><rect x="896" y="90" width="2" height="2" fill="#16263f"/><rect x="922" y="90" width="2" height="2" fill="#16263f"/><rect x="948" y="90" width="2" height="2" fill="#16263f"/><rect x="974" y="90" width="2" height="2" fill="#16263f"/><rect x="1000" y="90" width="2" height="2" fill="#16263f"/><rect x="1026" y="90" width="2" height="2" fill="#16263f"/><rect x="12" y="116" width="2" height="2" fill="#16263f"/><rect x="38" y="116" width="2" height="2" fill="#16263f"/><rect x="64" y="116" width="2" height="2" fill="#16263f"/><rect x="90" y="116" width="2" height="2" fill="#16263f"/><rect x="116" y="116" width="2" height="2" fill="#16263f"/><rect x="142" y="116" width="2" height="2" fill="#16263f"/><rect x="168" y="116" width="2" height="2" fill="#16263f"/><rect x="194" y="116" width="2" height="2" fill="#16263f"/><rect x="220" y="116" width="2" height="2" fill="#16263f"/><rect x="246" y="116" width="2" height="2" fill="#16263f"/><rect x="272" y="116" width="2" height="2" fill="#16263f"/><rect x="298" y="116" width="2" height="2" fill="#16263f"/><rect x="324" y="116" width="2" height="2" fill="#16263f"/><rect x="350" y="116" width="2" height="2" fill="#16263f"/><rect x="376" y="116" width="2" height="2" fill="#16263f"/><rect x="402" y="116" width="2" height="2" fill="#16263f"/><rect x="428" y="116" width="2" height="2" fill="#16263f"/><rect x="454" y="116" width="2" height="2" fill="#16263f"/><rect x="480" y="116" width="2" height="2" fill="#16263f"/><rect x="506" y="116" width="2" height="2" fill="#16263f"/><rect x="532" y="116" width="2" height="2" fill="#16263f"/><rect x="558" y="116" width="2" height="2" fill="#16263f"/><rect x="584" y="116" width="2" height="2" fill="#16263f"/><rect x="610" y="116" width="2" height="2" fill="#16263f"/><rect x="636" y="116" width="2" height="2" fill="#16263f"/><rect x="662" y="116" width="2" height="2" fill="#16263f"/><rect x="688" y="116" width="2" height="2" fill="#16263f"/><rect x="714" y="116" width="2" height="2" fill="#16263f"/><rect x="740" y="116" width="2" height="2" fill="#16263f"/><rect x="766" y="116" width="2" height="2" fill="#16263f"/><rect x="792" y="116" width="2" height="2" fill="#16263f"/><rect x="818" y="116" width="2" height="2" fill="#16263f"/><rect x="844" y="116" width="2" height="2" fill="#16263f"/><rect x="870" y="116" width="2" height="2" fill="#16263f"/><rect x="896" y="116" width="2" height="2" fill="#16263f"/><rect x="922" y="116" width="2" height="2" fill="#16263f"/><rect x="948" y="116" width="2" height="2" fill="#16263f"/><rect x="974" y="116" width="2" height="2" fill="#16263f"/><rect x="1000" y="116" width="2" height="2" fill="#16263f"/><rect x="1026" y="116" width="2" height="2" fill="#16263f"/><rect x="12" y="142" width="2" height="2" fill="#16263f"/><rect x="38" y="142" width="2" height="2" fill="#16263f"/><rect x="64" y="142" width="2" height="2" fill="#16263f"/><rect x="90" y="142" width="2" height="2" fill="#16263f"/><rect x="116" y="142" width="2" height="2" fill="#16263f"/><rect x="142" y="142" width="2" height="2" fill="#16263f"/><rect x="168" y="142" width="2" height="2" fill="#16263f"/><rect x="194" y="142" width="2" height="2" fill="#16263f"/><rect x="220" y="142" width="2" height="2" fill="#16263f"/><rect x="246" y="142" width="2" height="2" fill="#16263f"/><rect x="272" y="142" width="2" height="2" fill="#16263f"/><rect x="298" y="142" width="2" height="2" fill="#16263f"/><rect x="324" y="142" width="2" height="2" fill="#16263f"/><rect x="350" y="142" width="2" height="2" fill="#16263f"/><rect x="376" y="142" width="2" height="2" fill="#16263f"/><rect x="402" y="142" width="2" height="2" fill="#16263f"/><rect x="428" y="142" width="2" height="2" fill="#16263f"/><rect x="454" y="142" width="2" height="2" fill="#16263f"/><rect x="480" y="142" width="2" height="2" fill="#16263f"/><rect x="506" y="142" width="2" height="2" fill="#16263f"/><rect x="532" y="142" width="2" height="2" fill="#16263f"/><rect x="558" y="142" width="2" height="2" fill="#16263f"/><rect x="584" y="142" width="2" height="2" fill="#16263f"/><rect x="610" y="142" width="2" height="2" fill="#16263f"/><rect x="636" y="142" width="2" height="2" fill="#16263f"/><rect x="662" y="142" width="2" height="2" fill="#16263f"/><rect x="688" y="142" width="2" height="2" fill="#16263f"/><rect x="714" y="142" width="2" height="2" fill="#16263f"/><rect x="740" y="142" width="2" height="2" fill="#16263f"/><rect x="766" y="142" width="2" height="2" fill="#16263f"/><rect x="792" y="142" width="2" height="2" fill="#16263f"/><rect x="818" y="142" width="2" height="2" fill="#16263f"/><rect x="844" y="142" width="2" height="2" fill="#16263f"/><rect x="870" y="142" width="2" height="2" fill="#16263f"/><rect x="896" y="142" width="2" height="2" fill="#16263f"/><rect x="922" y="142" width="2" height="2" fill="#16263f"/><rect x="948" y="142" width="2" height="2" fill="#16263f"/><rect x="974" y="142" width="2" height="2" fill="#16263f"/><rect x="1000" y="142" width="2" height="2" fill="#16263f"/><rect x="1026" y="142" width="2" height="2" fill="#16263f"/><rect x="12" y="168" width="2" height="2" fill="#16263f"/><rect x="38" y="168" width="2" height="2" fill="#16263f"/><rect x="64" y="168" width="2" height="2" fill="#16263f"/><rect x="90" y="168" width="2" height="2" fill="#16263f"/><rect x="116" y="168" width="2" height="2" fill="#16263f"/><rect x="142" y="168" width="2" height="2" fill="#16263f"/><rect x="168" y="168" width="2" height="2" fill="#16263f"/><rect x="194" y="168" width="2" height="2" fill="#16263f"/><rect x="220" y="168" width="2" height="2" fill="#16263f"/><rect x="246" y="168" width="2" height="2" fill="#16263f"/><rect x="272" y="168" width="2" height="2" fill="#16263f"/><rect x="298" y="168" width="2" height="2" fill="#16263f"/><rect x="324" y="168" width="2" height="2" fill="#16263f"/><rect x="350" y="168" width="2" height="2" fill="#16263f"/><rect x="376" y="168" width="2" height="2" fill="#16263f"/><rect x="402" y="168" width="2" height="2" fill="#16263f"/><rect x="428" y="168" width="2" height="2" fill="#16263f"/><rect x="454" y="168" width="2" height="2" fill="#16263f"/><rect x="480" y="168" width="2" height="2" fill="#16263f"/><rect x="506" y="168" width="2" height="2" fill="#16263f"/><rect x="532" y="168" width="2" height="2" fill="#16263f"/><rect x="558" y="168" width="2" height="2" fill="#16263f"/><rect x="584" y="168" width="2" height="2" fill="#16263f"/><rect x="610" y="168" width="2" height="2" fill="#16263f"/><rect x="636" y="168" width="2" height="2" fill="#16263f"/><rect x="662" y="168" width="2" height="2" fill="#16263f"/><rect x="688" y="168" width="2" height="2" fill="#16263f"/><rect x="714" y="168" width="2" height="2" fill="#16263f"/><rect x="740" y="168" width="2" height="2" fill="#16263f"/><rect x="766" y="168" width="2" height="2" fill="#16263f"/><rect x="792" y="168" width="2" height="2" fill="#16263f"/><rect x="818" y="168" width="2" height="2" fill="#16263f"/><rect x="844" y="168" width="2" height="2" fill="#16263f"/><rect x="870" y="168" width="2" height="2" fill="#16263f"/><rect x="896" y="168" width="2" height="2" fill="#16263f"/><rect x="922" y="168" width="2" height="2" fill="#16263f"/><rect x="948" y="168" width="2" height="2" fill="#16263f"/><rect x="974" y="168" width="2" height="2" fill="#16263f"/><rect x="1000" y="168" width="2" height="2" fill="#16263f"/><rect x="1026" y="168" width="2" height="2" fill="#16263f"/><rect x="12" y="194" width="2" height="2" fill="#16263f"/><rect x="38" y="194" width="2" height="2" fill="#16263f"/><rect x="64" y="194" width="2" height="2" fill="#16263f"/><rect x="90" y="194" width="2" height="2" fill="#16263f"/><rect x="116" y="194" width="2" height="2" fill="#16263f"/><rect x="142" y="194" width="2" height="2" fill="#16263f"/><rect x="168" y="194" width="2" height="2" fill="#16263f"/><rect x="194" y="194" width="2" height="2" fill="#16263f"/><rect x="220" y="194" width="2" height="2" fill="#16263f"/><rect x="246" y="194" width="2" height="2" fill="#16263f"/><rect x="272" y="194" width="2" height="2" fill="#16263f"/><rect x="298" y="194" width="2" height="2" fill="#16263f"/><rect x="324" y="194" width="2" height="2" fill="#16263f"/><rect x="350" y="194" width="2" height="2" fill="#16263f"/><rect x="376" y="194" width="2" height="2" fill="#16263f"/><rect x="402" y="194" width="2" height="2" fill="#16263f"/><rect x="428" y="194" width="2" height="2" fill="#16263f"/><rect x="454" y="194" width="2" height="2" fill="#16263f"/><rect x="480" y="194" width="2" height="2" fill="#16263f"/><rect x="506" y="194" width="2" height="2" fill="#16263f"/><rect x="532" y="194" width="2" height="2" fill="#16263f"/><rect x="558" y="194" width="2" height="2" fill="#16263f"/><rect x="584" y="194" width="2" height="2" fill="#16263f"/><rect x="610" y="194" width="2" height="2" fill="#16263f"/><rect x="636" y="194" width="2" height="2" fill="#16263f"/><rect x="662" y="194" width="2" height="2" fill="#16263f"/><rect x="688" y="194" width="2" height="2" fill="#16263f"/><rect x="714" y="194" width="2" height="2" fill="#16263f"/><rect x="740" y="194" width="2" height="2" fill="#16263f"/><rect x="766" y="194" width="2" height="2" fill="#16263f"/><rect x="792" y="194" width="2" height="2" fill="#16263f"/><rect x="818" y="194" width="2" height="2" fill="#16263f"/><rect x="844" y="194" width="2" height="2" fill="#16263f"/><rect x="870" y="194" width="2" height="2" fill="#16263f"/><rect x="896" y="194" width="2" height="2" fill="#16263f"/><rect x="922" y="194" width="2" height="2" fill="#16263f"/><rect x="948" y="194" width="2" height="2" fill="#16263f"/><rect x="974" y="194" width="2" height="2" fill="#16263f"/><rect x="1000" y="194" width="2" height="2" fill="#16263f"/><rect x="1026" y="194" width="2" height="2" fill="#16263f"/><rect x="12" y="220" width="2" height="2" fill="#16263f"/><rect x="38" y="220" width="2" height="2" fill="#16263f"/><rect x="64" y="220" width="2" height="2" fill="#16263f"/><rect x="90" y="220" width="2" height="2" fill="#16263f"/><rect x="116" y="220" width="2" height="2" fill="#16263f"/><rect x="142" y="220" width="2" height="2" fill="#16263f"/><rect x="168" y="220" width="2" height="2" fill="#16263f"/><rect x="194" y="220" width="2" height="2" fill="#16263f"/><rect x="220" y="220" width="2" height="2" fill="#16263f"/><rect x="246" y="220" width="2" height="2" fill="#16263f"/><rect x="272" y="220" width="2" height="2" fill="#16263f"/><rect x="298" y="220" width="2" height="2" fill="#16263f"/><rect x="324" y="220" width="2" height="2" fill="#16263f"/><rect x="350" y="220" width="2" height="2" fill="#16263f"/><rect x="376" y="220" width="2" height="2" fill="#16263f"/><rect x="402" y="220" width="2" height="2" fill="#16263f"/><rect x="428" y="220" width="2" height="2" fill="#16263f"/><rect x="454" y="220" width="2" height="2" fill="#16263f"/><rect x="480" y="220" width="2" height="2" fill="#16263f"/><rect x="506" y="220" width="2" height="2" fill="#16263f"/><rect x="532" y="220" width="2" height="2" fill="#16263f"/><rect x="558" y="220" width="2" height="2" fill="#16263f"/><rect x="584" y="220" width="2" height="2" fill="#16263f"/><rect x="610" y="220" width="2" height="2" fill="#16263f"/><rect x="636" y="220" width="2" height="2" fill="#16263f"/><rect x="662" y="220" width="2" height="2" fill="#16263f"/><rect x="688" y="220" width="2" height="2" fill="#16263f"/><rect x="714" y="220" width="2" height="2" fill="#16263f"/><rect x="740" y="220" width="2" height="2" fill="#16263f"/><rect x="766" y="220" width="2" height="2" fill="#16263f"/><rect x="792" y="220" width="2" height="2" fill="#16263f"/><rect x="818" y="220" width="2" height="2" fill="#16263f"/><rect x="844" y="220" width="2" height="2" fill="#16263f"/><rect x="870" y="220" width="2" height="2" fill="#16263f"/><rect x="896" y="220" width="2" height="2" fill="#16263f"/><rect x="922" y="220" width="2" height="2" fill="#16263f"/><rect x="948" y="220" width="2" height="2" fill="#16263f"/><rect x="974" y="220" width="2" height="2" fill="#16263f"/><rect x="1000" y="220" width="2" height="2" fill="#16263f"/><rect x="1026" y="220" width="2" height="2" fill="#16263f"/><rect x="12" y="246" width="2" height="2" fill="#16263f"/><rect x="38" y="246" width="2" height="2" fill="#16263f"/><rect x="64" y="246" width="2" height="2" fill="#16263f"/><rect x="90" y="246" width="2" height="2" fill="#16263f"/><rect x="116" y="246" width="2" height="2" fill="#16263f"/><rect x="142" y="246" width="2" height="2" fill="#16263f"/><rect x="168" y="246" width="2" height="2" fill="#16263f"/><rect x="194" y="246" width="2" height="2" fill="#16263f"/><rect x="220" y="246" width="2" height="2" fill="#16263f"/><rect x="246" y="246" width="2" height="2" fill="#16263f"/><rect x="272" y="246" width="2" height="2" fill="#16263f"/><rect x="298" y="246" width="2" height="2" fill="#16263f"/><rect x="324" y="246" width="2" height="2" fill="#16263f"/><rect x="350" y="246" width="2" height="2" fill="#16263f"/><rect x="376" y="246" width="2" height="2" fill="#16263f"/><rect x="402" y="246" width="2" height="2" fill="#16263f"/><rect x="428" y="246" width="2" height="2" fill="#16263f"/><rect x="454" y="246" width="2" height="2" fill="#16263f"/><rect x="480" y="246" width="2" height="2" fill="#16263f"/><rect x="506" y="246" width="2" height="2" fill="#16263f"/><rect x="532" y="246" width="2" height="2" fill="#16263f"/><rect x="558" y="246" width="2" height="2" fill="#16263f"/><rect x="584" y="246" width="2" height="2" fill="#16263f"/><rect x="610" y="246" width="2" height="2" fill="#16263f"/><rect x="636" y="246" width="2" height="2" fill="#16263f"/><rect x="662" y="246" width="2" height="2" fill="#16263f"/><rect x="688" y="246" width="2" height="2" fill="#16263f"/><rect x="714" y="246" width="2" height="2" fill="#16263f"/><rect x="740" y="246" width="2" height="2" fill="#16263f"/><rect x="766" y="246" width="2" height="2" fill="#16263f"/><rect x="792" y="246" width="2" height="2" fill="#16263f"/><rect x="818" y="246" width="2" height="2" fill="#16263f"/><rect x="844" y="246" width="2" height="2" fill="#16263f"/><rect x="870" y="246" width="2" height="2" fill="#16263f"/><rect x="896" y="246" width="2" height="2" fill="#16263f"/><rect x="922" y="246" width="2" height="2" fill="#16263f"/><rect x="948" y="246" width="2" height="2" fill="#16263f"/><rect x="974" y="246" width="2" height="2" fill="#16263f"/><rect x="1000" y="246" width="2" height="2" fill="#16263f"/><rect x="1026" y="246" width="2" height="2" fill="#16263f"/><rect x="12" y="272" width="2" height="2" fill="#16263f"/><rect x="38" y="272" width="2" height="2" fill="#16263f"/><rect x="64" y="272" width="2" height="2" fill="#16263f"/><rect x="90" y="272" width="2" height="2" fill="#16263f"/><rect x="116" y="272" width="2" height="2" fill="#16263f"/><rect x="142" y="272" width="2" height="2" fill="#16263f"/><rect x="168" y="272" width="2" height="2" fill="#16263f"/><rect x="194" y="272" width="2" height="2" fill="#16263f"/><rect x="220" y="272" width="2" height="2" fill="#16263f"/><rect x="246" y="272" width="2" height="2" fill="#16263f"/><rect x="272" y="272" width="2" height="2" fill="#16263f"/><rect x="298" y="272" width="2" height="2" fill="#16263f"/><rect x="324" y="272" width="2" height="2" fill="#16263f"/><rect x="350" y="272" width="2" height="2" fill="#16263f"/><rect x="376" y="272" width="2" height="2" fill="#16263f"/><rect x="402" y="272" width="2" height="2" fill="#16263f"/><rect x="428" y="272" width="2" height="2" fill="#16263f"/><rect x="454" y="272" width="2" height="2" fill="#16263f"/><rect x="480" y="272" width="2" height="2" fill="#16263f"/><rect x="506" y="272" width="2" height="2" fill="#16263f"/><rect x="532" y="272" width="2" height="2" fill="#16263f"/><rect x="558" y="272" width="2" height="2" fill="#16263f"/><rect x="584" y="272" width="2" height="2" fill="#16263f"/><rect x="610" y="272" width="2" height="2" fill="#16263f"/><rect x="636" y="272" width="2" height="2" fill="#16263f"/><rect x="662" y="272" width="2" height="2" fill="#16263f"/><rect x="688" y="272" width="2" height="2" fill="#16263f"/><rect x="714" y="272" width="2" height="2" fill="#16263f"/><rect x="740" y="272" width="2" height="2" fill="#16263f"/><rect x="766" y="272" width="2" height="2" fill="#16263f"/><rect x="792" y="272" width="2" height="2" fill="#16263f"/><rect x="818" y="272" width="2" height="2" fill="#16263f"/><rect x="844" y="272" width="2" height="2" fill="#16263f"/><rect x="870" y="272" width="2" height="2" fill="#16263f"/><rect x="896" y="272" width="2" height="2" fill="#16263f"/><rect x="922" y="272" width="2" height="2" fill="#16263f"/><rect x="948" y="272" width="2" height="2" fill="#16263f"/><rect x="974" y="272" width="2" height="2" fill="#16263f"/><rect x="1000" y="272" width="2" height="2" fill="#16263f"/><rect x="1026" y="272" width="2" height="2" fill="#16263f"/><rect x="12" y="298" width="2" height="2" fill="#16263f"/><rect x="38" y="298" width="2" height="2" fill="#16263f"/><rect x="64" y="298" width="2" height="2" fill="#16263f"/><rect x="90" y="298" width="2" height="2" fill="#16263f"/><rect x="116" y="298" width="2" height="2" fill="#16263f"/><rect x="142" y="298" width="2" height="2" fill="#16263f"/><rect x="168" y="298" width="2" height="2" fill="#16263f"/><rect x="194" y="298" width="2" height="2" fill="#16263f"/><rect x="220" y="298" width="2" height="2" fill="#16263f"/><rect x="246" y="298" width="2" height="2" fill="#16263f"/><rect x="272" y="298" width="2" height="2" fill="#16263f"/><rect x="298" y="298" width="2" height="2" fill="#16263f"/><rect x="324" y="298" width="2" height="2" fill="#16263f"/><rect x="350" y="298" width="2" height="2" fill="#16263f"/><rect x="376" y="298" width="2" height="2" fill="#16263f"/><rect x="402" y="298" width="2" height="2" fill="#16263f"/><rect x="428" y="298" width="2" height="2" fill="#16263f"/><rect x="454" y="298" width="2" height="2" fill="#16263f"/><rect x="480" y="298" width="2" height="2" fill="#16263f"/><rect x="506" y="298" width="2" height="2" fill="#16263f"/><rect x="532" y="298" width="2" height="2" fill="#16263f"/><rect x="558" y="298" width="2" height="2" fill="#16263f"/><rect x="584" y="298" width="2" height="2" fill="#16263f"/><rect x="610" y="298" width="2" height="2" fill="#16263f"/><rect x="636" y="298" width="2" height="2" fill="#16263f"/><rect x="662" y="298" width="2" height="2" fill="#16263f"/><rect x="688" y="298" width="2" height="2" fill="#16263f"/><rect x="714" y="298" width="2" height="2" fill="#16263f"/><rect x="740" y="298" width="2" height="2" fill="#16263f"/><rect x="766" y="298" width="2" height="2" fill="#16263f"/><rect x="792" y="298" width="2" height="2" fill="#16263f"/><rect x="818" y="298" width="2" height="2" fill="#16263f"/><rect x="844" y="298" width="2" height="2" fill="#16263f"/><rect x="870" y="298" width="2" height="2" fill="#16263f"/><rect x="896" y="298" width="2" height="2" fill="#16263f"/><rect x="922" y="298" width="2" height="2" fill="#16263f"/><rect x="948" y="298" width="2" height="2" fill="#16263f"/><rect x="974" y="298" width="2" height="2" fill="#16263f"/><rect x="1000" y="298" width="2" height="2" fill="#16263f"/><rect x="1026" y="298" width="2" height="2" fill="#16263f"/></g>
<rect x="0" y="0" width="1040" height="2" fill="#f5b942" opacity="0.5"/>
<rect x="0" y="298" width="1040" height="2" fill="#a855f7" opacity="0.45"/>
<text x="34" y="42" font-family="'Consolas',monospace" font-size="20" font-weight="700" letter-spacing="2" fill="#dbeafe">STYLE-LOCK <tspan fill="#f5b942">🔒</tspan></text>
<text x="34" y="66" font-family="'Consolas',monospace" font-size="13" letter-spacing="1" fill="#6f8fbf">one style, enforced forever — every asset obeys the frozen contract</text>
<rect x="34" y="108" width="176" height="86" rx="8" fill="#0e1b30" stroke="#34e6f2" stroke-width="1.5"/>
<text x="48" y="132" font-family="'Consolas',monospace" font-size="11" letter-spacing="2" fill="#34e6f2">YOU WRITE ONLY</text>
<text x="48" y="160" font-family="'Consolas',monospace" font-size="15" font-weight="700" fill="#dbeafe">"a healing</text>
<text x="48" y="180" font-family="'Consolas',monospace" font-size="15" font-weight="700" fill="#dbeafe"> gourd"</text>
<text x="48" y="204" font-family="'Consolas',monospace" font-size="10.5" fill="#6f8fbf">the subject — never the style</text>
<rect x="214" y="150" width="36" height="2" fill="#6f8fbf"/><polygon points="243,146 250,151 243,156" fill="#f5b942"/>
<rect x="254" y="82" width="250" height="150" rx="10" fill="#0f1c2f" stroke="#f5b942" stroke-width="2"/>
<rect x="254" y="82" width="250" height="5" rx="2" fill="#f5b942"/>
<text x="270" y="112" font-family="'Consolas',monospace" font-size="13" font-weight="700" letter-spacing="1" fill="#f5b942">STYLE CONTRACT 🔒</text>
<text x="270" y="132" font-family="'Consolas',monospace" font-size="10.5" fill="#6f8fbf">frozen · versioned · re-lock only</text>
<rect x="270" y="144" width="34" height="24" rx="3" fill="#1A1712" stroke="#000" stroke-opacity="0.3"/>
<rect x="310" y="144" width="34" height="24" rx="3" fill="#C1332B" stroke="#000" stroke-opacity="0.3"/>
<rect x="350" y="144" width="34" height="24" rx="3" fill="#6B7C6E" stroke="#000" stroke-opacity="0.3"/>
<rect x="390" y="144" width="34" height="24" rx="3" fill="#8A6D3B" stroke="#000" stroke-opacity="0.3"/>
<rect x="430" y="144" width="34" height="24" rx="3" fill="#F2E9D8" stroke="#000" stroke-opacity="0.3"/>
<text x="270" y="190" font-family="'Consolas',monospace" font-size="11" fill="#dbeafe">prefix + subject + suffix</text>
<text x="270" y="208" font-family="'Consolas',monospace" font-size="11" fill="#dbeafe">+ negative · seed · ref-image</text>
<rect x="508" y="156" width="38" height="2" fill="#6f8fbf"/><polygon points="539,152 546,157 539,162" fill="#34d399"/>
<rect x="550" y="128" width="120" height="58" rx="8" fill="#0e1b30" stroke="#34d399" stroke-width="1.5"/>
<rect x="550" y="128" width="120" height="4" rx="2" fill="#34d399"/>
<text x="610.0" y="154" text-anchor="middle" font-family="'Consolas',monospace" font-size="12.5" font-weight="700" fill="#dbeafe">AUDIT ▣</text>
<text x="610.0" y="172" text-anchor="middle" font-family="'Consolas',monospace" font-size="9.5" fill="#6f8fbf">palette·res·bg</text>
<rect x="674" y="156" width="32" height="2" fill="#6f8fbf"/><polygon points="699,152 706,157 699,162" fill="#34d399"/>
<g filter="url(#glow)"><rect x="736" y="98" width="7" height="7" rx="1" fill="#1A1712"/><rect x="728" y="106" width="7" height="7" rx="1" fill="#C1332B"/><rect x="736" y="106" width="7" height="7" rx="1" fill="#F2E9D8"/><rect x="744" y="106" width="7" height="7" rx="1" fill="#1A1712"/><rect x="720" y="114" width="7" height="7" rx="1" fill="#C1332B"/><rect x="728" y="114" width="7" height="7" rx="1" fill="#F2E9D8"/><rect x="736" y="114" width="7" height="7" rx="1" fill="#1A1712"/><rect x="744" y="114" width="7" height="7" rx="1" fill="#C1332B"/><rect x="752" y="114" width="7" height="7" rx="1" fill="#F2E9D8"/><rect x="728" y="122" width="7" height="7" rx="1" fill="#1A1712"/><rect x="736" y="122" width="7" height="7" rx="1" fill="#C1332B"/><rect x="744" y="122" width="7" height="7" rx="1" fill="#F2E9D8"/><rect x="736" y="130" width="7" height="7" rx="1" fill="#1A1712"/></g>
<g filter="url(#glow)"><rect x="796" y="98" width="7" height="7" rx="1" fill="#1A1712"/><rect x="788" y="106" width="7" height="7" rx="1" fill="#C1332B"/><rect x="796" y="106" width="7" height="7" rx="1" fill="#F2E9D8"/><rect x="804" y="106" width="7" height="7" rx="1" fill="#1A1712"/><rect x="780" y="114" width="7" height="7" rx="1" fill="#C1332B"/><rect x="788" y="114" width="7" height="7" rx="1" fill="#F2E9D8"/><rect x="796" y="114" width="7" height="7" rx="1" fill="#1A1712"/><rect x="804" y="114" width="7" height="7" rx="1" fill="#C1332B"/><rect x="812" y="114" width="7" height="7" rx="1" fill="#F2E9D8"/><rect x="788" y="122" width="7" height="7" rx="1" fill="#1A1712"/><rect x="796" y="122" width="7" height="7" rx="1" fill="#C1332B"/><rect x="804" y="122" width="7" height="7" rx="1" fill="#F2E9D8"/><rect x="796" y="130" width="7" height="7" rx="1" fill="#1A1712"/></g>
<g filter="url(#glow)"><rect x="856" y="98" width="7" height="7" rx="1" fill="#1A1712"/><rect x="848" y="106" width="7" height="7" rx="1" fill="#C1332B"/><rect x="856" y="106" width="7" height="7" rx="1" fill="#F2E9D8"/><rect x="864" y="106" width="7" height="7" rx="1" fill="#1A1712"/><rect x="840" y="114" width="7" height="7" rx="1" fill="#C1332B"/><rect x="848" y="114" width="7" height="7" rx="1" fill="#F2E9D8"/><rect x="856" y="114" width="7" height="7" rx="1" fill="#1A1712"/><rect x="864" y="114" width="7" height="7" rx="1" fill="#C1332B"/><rect x="872" y="114" width="7" height="7" rx="1" fill="#F2E9D8"/><rect x="848" y="122" width="7" height="7" rx="1" fill="#1A1712"/><rect x="856" y="122" width="7" height="7" rx="1" fill="#C1332B"/><rect x="864" y="122" width="7" height="7" rx="1" fill="#F2E9D8"/><rect x="856" y="130" width="7" height="7" rx="1" fill="#1A1712"/></g>
<g filter="url(#glow)"><rect x="916" y="98" width="7" height="7" rx="1" fill="#1A1712"/><rect x="908" y="106" width="7" height="7" rx="1" fill="#C1332B"/><rect x="916" y="106" width="7" height="7" rx="1" fill="#F2E9D8"/><rect x="924" y="106" width="7" height="7" rx="1" fill="#1A1712"/><rect x="900" y="114" width="7" height="7" rx="1" fill="#C1332B"/><rect x="908" y="114" width="7" height="7" rx="1" fill="#F2E9D8"/><rect x="916" y="114" width="7" height="7" rx="1" fill="#1A1712"/><rect x="924" y="114" width="7" height="7" rx="1" fill="#C1332B"/><rect x="932" y="114" width="7" height="7" rx="1" fill="#F2E9D8"/><rect x="908" y="122" width="7" height="7" rx="1" fill="#1A1712"/><rect x="916" y="122" width="7" height="7" rx="1" fill="#C1332B"/><rect x="924" y="122" width="7" height="7" rx="1" fill="#F2E9D8"/><rect x="916" y="130" width="7" height="7" rx="1" fill="#1A1712"/></g>
<text x="830" y="162" text-anchor="middle" font-family="'Consolas',monospace" font-size="12" font-weight="700" fill="#34d399">✓ ON-STYLE FAMILY</text>
<g opacity="0.9"><rect x="766" y="194" width="7" height="7" rx="1" fill="#22d3ee"/><rect x="758" y="202" width="7" height="7" rx="1" fill="#a3e635"/><rect x="766" y="202" width="7" height="7" rx="1" fill="#f472b6"/><rect x="774" y="202" width="7" height="7" rx="1" fill="#22d3ee"/><rect x="750" y="210" width="7" height="7" rx="1" fill="#a3e635"/><rect x="758" y="210" width="7" height="7" rx="1" fill="#f472b6"/><rect x="766" y="210" width="7" height="7" rx="1" fill="#22d3ee"/><rect x="774" y="210" width="7" height="7" rx="1" fill="#a3e635"/><rect x="782" y="210" width="7" height="7" rx="1" fill="#f472b6"/><rect x="758" y="218" width="7" height="7" rx="1" fill="#22d3ee"/><rect x="766" y="218" width="7" height="7" rx="1" fill="#a3e635"/><rect x="774" y="218" width="7" height="7" rx="1" fill="#f472b6"/><rect x="766" y="226" width="7" height="7" rx="1" fill="#22d3ee"/></g>
<text x="770" y="196" text-anchor="middle" font-family="'Consolas',monospace" font-size="16" font-weight="700" fill="#f43f5e">✗</text>
<text x="812" y="212" font-family="'Consolas',monospace" font-size="11" font-weight="700" fill="#f43f5e">off-style</text>
<text x="812" y="228" font-family="'Consolas',monospace" font-size="10.5" fill="#6f8fbf">→ regenerate, never ship</text>
<path d="M 748 214 C 640 240, 600 210, 600 190" fill="none" stroke="#f43f5e" stroke-width="1.6" stroke-dasharray="4 3"/>
<polygon points="604,196 599,186 594,196" fill="#f43f5e"/>
</svg>